/* XPM */
static char *oberonPixmap[] = {
/* width height num_colors chars_per_pixel */
"    32    26        3            1",
/* colors */
". c #000000",
"# c #ffffff",
"a c #828282",
/* pixels */
"................................",
".#a################.#a#########.",
".#a#aaaaaaaa#######.#a#aaa#aa##.",
".#a################.#a#########.",
".#a#aaa#aaaaaa#aaa#.#a#aa#aa#a#.",
".#a################.#a#########.",
".#a#a#aaaa#aaa#aaa#.#a#a#aaa###.",
".#a################.#a#########.",
".#a#aaaa#aaaa#aaaa#.............",
".#a################.............",
".#a#aa#aaa#aaaaaaa#.#a#########.",
".#a################.#a#aaaaaa##.",
"....................#a#########.",
"....................#a#aaa#####.",
".##################.#a#########.",
".##aaaaaa#aaaaaa###.#a#aa#aaa##.",
".##a####a#a####a###.#a#########.",
".##a####a#a####a###.............",
".##aaaaaa#aaaaaa###.............",
".#####a#####a######.#a#########.",
".#####a#####a######.#a#aaaa#aa#.",
".###aaaaaaaaaaa####.#a#########.",
".###a#########a####.#a#aaaaa###.",
".###a#########a####.#a#########.",
".##################.#a#########.",
"................................"
};
